<svg viewBox="0 0 600 400" xmlns="http://www.w3.org/2000/svg">
<g transform="translate(72, 364)">
<g>
<g>
<path d="M0,-1.3229572 L0,-1.3229572 L3,-1.4175146 L6,-1.5188 L9,-1.6272877 L12,-1.743485 L15,-1.8679334 L18,-2.0012124 L21,-2.1439407 L24,-2.2967792 L27,-2.460434 L30,-2.635659 L33,-2.8232584 L36,-3.0240912 L39,-3.239073 L42,-3.4691803 L45,-3.7154543 L48,-3.9790046 L51,-4.2610126 L54,-4.562736 L57,-4.885514 L60,-5.230769 L63,-5.600016 L66,-5.9948616 L69,-6.417013 L72,-6.8682804 L75,-7.350583 L78,-7.8659544 L81,-8.416546 L84,-9.004631 L87,-9.632615 L90,-10.30303 L93,-11.01855 L96,-11.781984 L99,-12.596289 L102,-13.464565 L105,-14.390062 L108,-15.376179 L111,-16.426462 L114,-17.544607 L117,-18.734459 L120,-20 L123,-21.34535 L126,-22.774757 L129,-24.29259 L132,-25.903316 L135,-27.611504 L138,-29.421783 L141,-31.338846 L144,-33.367397 L147,-35.51215 L150,-37.77778 L153,-40.16888 L156,-42.689945 L159,-45.34531 L162,-48.139095 L165,-51.075176 L168,-54.1571 L171,-57.388058 L174,-60.770786 L177,-64.30754 L180,-68 L183,-71.84922 L186,-75.85557 L189,-80.01865 L192,-84.33726 L195,-88.80932 L198,-93.431854 L201,-98.200935 L204,-103.11165 L207,-108.15808 L210,-113.333336 L213,-118.62951 L216,-124.03774 L219,-129.54825 L222,-135.15036 L225,-140.83261 L228,-146.58281 L231,-152.38817 L234,-158.23534 L237,-164.11061 L240,-170 L243,-175.88939 L246,-181.76466 L249,-187.61183 L252,-193.41719 L255,-199.16739 L258,-204.84964 L261,-210.45175 L264,-215.96225 L267,-221.3705 L270,-226.66667 L273,-231.84192 L276,-236.88835 L279,-241.79907 L282,-246.56815 L285,-251.19069 L288,-255.66275 L291,-259.98135 L294,-264.14444 L297,-268.1508 L300,-272 L303,-275.69247 L306,-279.22922 L309,-282.61194 L312,-285.8429 L315,-288.92484 L318,-291.8609 L321,-294.6547 L324,-297.31006 L327,-299.83112 L330,-302.22223 L333,-304.48785 L336,-306.6326 L339,-308.66116 L342,-310.57822 L345,-312.3885 L348,-314.09668 L351,-315.7074 L354,-317.22525 L357,-318.65466 L360,-320 L363,-321.26553 L366,-322.45538 L369,-323.57355 L372,-324.6238 L375,-325.60992 L378,-326.53543 L381,-327.40372 L384,-328.21802 L387,-328.98145 L390,-329.69696 L393,-330.36737 L396,-330.99536 L399,-331.58347 L402,-332.13403 L405,-332.6494 L408,-333.1317 L411,-333.58298 L414,-334.00513 L417,-334.4 L420,-334.76923 L423,-335.11447 L426,-335.43726 L429,-335.73898 L432,-336.021 L435,-336.28455 L438,-336.53082 L441,-336.76093 L444,-336.97592 L447,-337.17673 L450,-337.36435 L453,-337.53955 L456,-337.70322 L459,-337.85605 L462,-337.99878 L465,-338.13208 L468,-338.2565 L471,-338.3727 L474,-338.4812 L477,-338.5825" fill="none" stroke="#DD3355" stroke-linejoin="round" stroke-width="2"/>
</g>
</g>
<g>
<g>
<path d="M0,-0 L0,-0 L3,-0 L6,-0 L9,-0 L12,-0 L15,-0 L18,-0 L21,-0 L24,-0 L27,-0 L30,-0 L33,-0 L36,-0 L39,-0 L42,-0 L45,-0 L48,-0 L51,-0 L54,-0 L57,-0 L60,-0 L63,-0 L66,-0 L69,-0 L72,-0 L75,-0 L78,-0 L81,-0 L84,-0 L87,-0 L90,-0 L93,-0 L96,-0 L99,-0 L102,-0 L105,-0 L108,-0 L111,-0 L114,-0 L117,-0 L120,-0 L123,-0 L126,-0 L129,-0 L132,-0 L135,-0 L138,-0 L141,-0 L144,-0 L147,-0 L150,-0 L153,-0 L156,-0 L159,-0 L162,-0 L165,-0 L168,-0 L171,-0 L174,-0 L177,-0 L180,-0 L183,-0 L186,-0 L189,-0 L192,-0 L195,-0 L198,-0 L201,-0 L204,-0 L207,-0 L210,-0 L213,-0 L216,-0 L219,-0 L222,-0 L225,-0 L228,-0 L231,-0 L234,-0 L237,-0 L240,-0 L243,-34 L246,-68 L249,-102 L252,-136 L255,-170 L258,-204 L261,-238 L264,-272 L267,-306 L270,-340 L273,-374 L276,-408 L279,-442 L282,-476 L285,-510 L288,-544 L291,-578 L294,-612 L297,-646 L300,-680 L303,-714 L306,-748 L309,-782 L312,-816 L315,-850 L318,-884 L321,-918 L324,-952 L327,-986 L330,-1020 L333,-1054 L336,-1088 L339,-1122 L342,-1156 L345,-1190 L348,-1224 L351,-1258 L354,-1292 L357,-1326 L360,-1360 L363,-1394 L366,-1428 L369,-1462 L372,-1496 L375,-1530 L378,-1564 L381,-1598 L384,-1632 L387,-1666 L390,-1700 L393,-1734 L396,-1768 L399,-1802 L402,-1836 L405,-1870 L408,-1904 L411,-1938 L414,-1972 L417,-2006 L420,-2040 L423,-2074 L426,-2108 L429,-2142 L432,-2176 L435,-2210 L438,-2244 L441,-2278 L444,-2312 L447,-2346 L450,-2380 L453,-2414 L456,-2448 L459,-2482 L462,-2516 L465,-2550 L468,-2584 L471,-2618 L474,-2652 L477,-2686" fill="none" stroke="#55DD33" stroke-linejoin="round" stroke-width="2"/>
</g>
</g>
<g>
<g>
<path d="M0,-0 L0,-0 L3,-0 L6,-0 L9,-0 L12,-0 L15,-0 L18,-0 L21,-0 L24,-0 L27,-0 L30,-0 L33,-0 L36,-0 L39,-0 L42,-0 L45,-0 L48,-0 L51,-0 L54,-0 L57,-0 L60,-0 L63,-0 L66,-0 L69,-0 L72,-0 L75,-0 L78,-0 L81,-0 L84,-0 L87,-0 L90,-0 L93,-0 L96,-0 L99,-0 L102,-0 L105,-0 L108,-0 L111,-0 L114,-0 L117,-0 L120,-0 L123,-0 L126,-0 L129,-0 L132,-0 L135,-0 L138,-0 L141,-0 L144,-0 L147,-0 L150,-0 L153,-0 L156,-0 L159,-0 L162,-0 L165,-0 L168,-0 L171,-0 L174,-0 L177,-0 L180,-0 L183,-0 L186,-0 L189,-0 L192,-0 L195,-0 L198,-0 L201,-0 L204,-0 L207,-0 L210,-0 L213,-0 L216,-0 L219,-0 L222,-0 L225,-0 L228,-0 L231,-0 L234,-0 L237,-0 L240,-340 L243,-340 L246,-340 L249,-340 L252,-340 L255,-340 L258,-340 L261,-340 L264,-340 L267,-340 L270,-340 L273,-340 L276,-340 L279,-340 L282,-340 L285,-340 L288,-340 L291,-340 L294,-340 L297,-340 L300,-340 L303,-340 L306,-340 L309,-340 L312,-340 L315,-340 L318,-340 L321,-340 L324,-340 L327,-340 L330,-340 L333,-340 L336,-340 L339,-340 L342,-340 L345,-340 L348,-340 L351,-340 L354,-340 L357,-340 L360,-340 L363,-340 L366,-340 L369,-340 L372,-340 L375,-340 L378,-340 L381,-340 L384,-340 L387,-340 L390,-340 L393,-340 L396,-340 L399,-340 L402,-340 L405,-340 L408,-340 L411,-340 L414,-340 L417,-340 L420,-340 L423,-340 L426,-340 L429,-340 L432,-340 L435,-340 L438,-340 L441,-340 L444,-340 L447,-340 L450,-340 L453,-340 L456,-340 L459,-340 L462,-340 L465,-340 L468,-340 L471,-340 L474,-340 L477,-340" fill="none" stroke="#0000AA" stroke-linejoin="round" stroke-width="2"/>
</g>
</g>
<g>
<g>
<path d="M0,-0.0000040240457 L0,-0.0000040240457 L3,-0.0000044472586 L6,-0.0000049149808 L9,-0.000005431894 L12,-0.000006003171 L15,-0.00000663453 L18,-0.0000073322894 L21,-0.000008103433 L24,-0.000008955679 L27,-0.000009897556 L30,-0.000010938491 L33,-0.000012088902 L36,-0.000013360303 L39,-0.000014765418 L42,-0.00001631831 L45,-0.000018034521 L48,-0.000019931229 L51,-0.000022027416 L54,-0.000024344059 L57,-0.000026904347 L60,-0.000029733901 L63,-0.00003286104 L66,-0.00003631707 L69,-0.00004013657 L72,-0.000044357766 L75,-0.000049022914 L78,-0.000054178698 L81,-0.000059876722 L84,-0.00006617401 L87,-0.0000731336 L90,-0.00008082512 L93,-0.00008932557 L96,-0.000098720026 L99,-0.000109102504 L102,-0.000120576915 L105,-0.0001332581 L108,-0.00014727298 L111,-0.0001627618 L114,-0.00017987961 L117,-0.00019879772 L120,-0.00021970546 L123,-0.00024281208 L126,-0.00026834884 L129,-0.00029657135 L132,-0.00032776204 L135,-0.00036223306 L138,-0.00040032945 L141,-0.00044243247 L144,-0.0004889635 L147,-0.0005403882 L150,-0.00059722137 L153,-0.0006600317 L156,-0.0007294478 L159,-0.0008061645 L162,-0.00089094957 L165,-0.0009846515 L168,-0.0010882083 L171,-0.0012026561 L174,-0.0013291406 L177,-0.0014689275 L180,-0.001623416 L183,-0.0017941521 L186,-0.0019828447 L189,-0.0021913822 L192,-0.002421852 L195,-0.0026765605 L198,-0.0029580567 L201,-0.0032691583 L204,-0.0036129786 L207,-0.003992959 L210,-0.004412902 L213,-0.0048770113 L216,-0.0053899307 L219,-0.0059567946 L222,-0.006583276 L225,-0.0072756456 L228,-0.008040832 L231,-0.008886494 L234,-0.009821095 L237,-0.010853988 L240,-0.011995512 L243,-0.013257091 L246,-0.014651351 L249,-0.016192246 L252,-0.017895201 L255,-0.019777255 L258,-0.021857247 L261,-0.024155995 L264,-0.026696501 L267,-0.029504199 L270,-0.032607183 L273,-0.03603651 L276,-0.0398265 L279,-0.04401509 L282,-0.0486442 L285,-0.053760152 L288,-0.05941416 L291,-0.0656628 L294,-0.07256862 L297,-0.080200724 L300,-0.08863551 L303,-0.09795739 L306,-0.108259656 L309,-0.119645424 L312,-0.13222864 L315,-0.14613524 L318,-0.16150443 L321,-0.17849 L324,-0.19726194 L327,-0.21800818 L330,-0.2409363 L333,-0.2662758 L336,-0.29428026 L339,-0.32522997 L342,-0.35943472 L345,-0.3972368 L348,-0.43901455 L351,-0.4851861 L354,-0.5362136 L357,-0.5926077 L360,-0.65493274 L363,-0.72381264 L366,-0.79993665 L369,-0.88406676 L372,-0.9770448 L375,-1.0798016 L378,-1.1933652 L381,-1.3188726 L384,-1.4575796 L387,-1.6108747 L390,-1.7802918 L393,-1.9675267 L396,-2.1744533 L399,-2.4031425 L402,-2.6558833 L405,-2.935205 L408,-3.2439032 L411,-3.5850673 L414,-3.9621122 L417,-4.3788114 L420,-4.839335 L423,-5.348292 L426,-5.9107766 L429,-6.5324187 L432,-7.219439 L435,-7.978714 L438,-8.8178425 L441,-9.745223 L444,-10.770138 L447,-11.9028425 L450,-13.1546755 L453,-14.538165 L456,-16.067158 L459,-17.756954 L462,-19.62447 L465,-21.688395 L468,-23.969381 L471,-26.490265 L474,-29.27627 L477,-32.35528" fill="none" stroke="#00AA00" stroke-linejoin="round" stroke-width="2"/>
</g>
</g>
<g>
<g>
<line stroke="black" stroke-width="1" x1="0" x2="0" y1="0" y2="10"/>
<line stroke="black" stroke-width="1" x1="120" x2="120" y1="0" y2="10"/>
<line stroke="black" stroke-width="1" x1="240" x2="240" y1="0" y2="10"/>
<line stroke="black" stroke-width="1" x1="360" x2="360" y1="0" y2="10"/>
<line stroke="black" stroke-width="1" x1="480" x2="480" y1="0" y2="10"/>
</g>
<line stroke="black" stroke-width="1" x1="0" x2="480" y1="0" y2="0"/>
<g>
<text font-size="12" text-anchor="middle" x="0" y="20">
-8
</text>
<text font-size="12" text-anchor="middle" x="120" y="20">
-4
</text>
<text font-size="12" text-anchor="middle" x="240" y="20">
0
</text>
<text font-size="12" text-anchor="middle" x="360" y="20">
4
</text>
<text font-size="12" text-anchor="middle" x="480" y="20">
8
</text>
</g>
<text font-size="12" text-anchor="middle" x="240" y="30">
x
</text>
</g>
<g>
<g>
<line stroke="black" stroke-width="1" x1="0" x2="-10" y1="-0" y2="-0"/>
<line stroke="black" stroke-width="1" x1="0" x2="-10" y1="-68" y2="-68"/>
<line stroke="black" stroke-width="1" x1="0" x2="-10" y1="-136" y2="-136"/>
<line stroke="black" stroke-width="1" x1="0" x2="-10" y1="-204" y2="-204"/>
<line stroke="black" stroke-width="1" x1="0" x2="-10" y1="-272" y2="-272"/>
<line stroke="black" stroke-width="1" x1="0" x2="-10" y1="-340" y2="-340"/>
</g>
<line stroke="black" stroke-width="1" x1="0" x2="0" y1="0" y2="-340"/>
<g>
<text dominant-baseline="middle" font-size="12" text-anchor="end" x="-15" y="-0">
0
</text>
<text dominant-baseline="middle" font-size="12" text-anchor="end" x="-15" y="-68">
0.2
</text>
<text dominant-baseline="middle" font-size="12" text-anchor="end" x="-15" y="-136">
0.4
</text>
<text dominant-baseline="middle" font-size="12" text-anchor="end" x="-15" y="-204">
0.6
</text>
<text dominant-baseline="middle" font-size="12" text-anchor="end" x="-15" y="-272">
0.8
</text>
<text dominant-baseline="middle" font-size="12" text-anchor="end" x="-15" y="-340">
1
</text>
</g>
<text font-size="12" text-anchor="middle" transform="rotate(-90 -36 -170)" x="-36" y="-182">
y
</text>
</g>
</g>
</svg>