<svg viewBox="0 0 600 400" xmlns="http://www.w3.org/2000/svg">
<g transform="translate(72, 364)">
<g>
<g>
<path d="M0,-0.114019044 L0,-0.114019044 L3,-0.12600608 L6,-0.13925284 L9,-0.15389155 L12,-0.17006838 L15,-0.18794474 L18,-0.20769899 L21,-0.22952813 L24,-0.2536498 L27,-0.2803044 L30,-0.3097574 L33,-0.34230208 L36,-0.37826225 L39,-0.41799554 L42,-0.46189678 L45,-0.51040196 L48,-0.5639924 L51,-0.6231992 L54,-0.68860894 L57,-0.7608685 L60,-0.84069186 L63,-0.9288667 L66,-1.0262616 L69,-1.1338345 L72,-1.2526416 L75,-1.3838469 L78,-1.5287329 L81,-1.6887126 L84,-1.8653417 L87,-2.0603325 L90,-2.2755692 L93,-2.513124 L96,-2.7752743 L99,-3.0645216 L102,-3.3836126 L105,-3.7355604 L108,-4.1236677 L111,-4.5515523 L114,-5.023171 L117,-5.54285 L120,-6.1153116 L123,-6.745704 L126,-7.439632 L129,-8.203187 L132,-9.042978 L135,-9.966159 L138,-10.980458 L141,-12.094204 L144,-13.316346 L147,-14.6564665 L150,-16.124798 L153,-17.732212 L156,-19.49022 L159,-21.41094 L162,-23.507063 L165,-25.79178 L168,-28.278717 L171,-30.981806 L174,-33.915165 L177,-37.09292 L180,-40.52899 L183,-44.23688 L186,-48.229362 L189,-52.51819 L192,-57.11375 L195,-62.024677 L198,-67.25748 L201,-72.81611 L204,-78.70158 L207,-84.91157 L210,-91.44009 L213,-98.27717 L216,-105.408676 L219,-112.816154 L222,-120.47685 L225,-128.36383 L228,-136.4462 L231,-144.68954 L234,-153.05644 L237,-161.50708 L240,-170 L243,-178.49292 L246,-186.94356 L249,-195.31046 L252,-203.5538 L255,-211.63617 L258,-219.52315 L261,-227.18384 L264,-234.59132 L267,-241.72282 L270,-248.55992 L273,-255.08844 L276,-261.29843 L279,-267.1839 L282,-272.74252 L285,-277.9753 L288,-282.88626 L291,-287.4818 L294,-291.77063 L297,-295.76312 L300,-299.471 L303,-302.90707 L306,-306.08484 L309,-309.0182 L312,-311.72128 L315,-314.20822 L318,-316.49295 L321,-318.58905 L324,-320.50977 L327,-322.2678 L330,-323.8752 L333,-325.34354 L336,-326.68365 L339,-327.9058 L342,-329.01953 L345,-330.03384 L348,-330.95703 L351,-331.7968 L354,-332.56036 L357,-333.2543 L360,-333.88467 L363,-334.45715 L366,-334.97684 L369,-335.44846 L372,-335.87634 L375,-336.26443 L378,-336.6164 L381,-336.9355 L384,-337.22473 L387,-337.48688 L390,-337.72443 L393,-337.93967 L396,-338.13464 L399,-338.31128 L402,-338.47125 L405,-338.61615 L408,-338.74734 L411,-338.86618 L414,-338.97372 L417,-339.07114 L420,-339.1593 L423,-339.23914 L426,-339.3114 L429,-339.3768 L432,-339.436 L435,-339.4896 L438,-339.53812 L441,-339.582 L444,-339.62173 L447,-339.65768 L450,-339.69025 L453,-339.7197 L456,-339.74634 L459,-339.77048 L462,-339.7923 L465,-339.81204 L468,-339.82993 L471,-339.8461 L474,-339.86075 L477,-339.874" fill="none" stroke="#DD3355" stroke-linejoin="round" stroke-width="2"/>
</g>
</g>
<g>
<g>
<path d="M0,-0 L0,-0 L3,-0 L6,-0 L9,-0 L12,-0 L15,-0 L18,-0 L21,-0 L24,-0 L27,-0 L30,-0 L33,-0 L36,-0 L39,-0 L42,-0 L45,-0 L48,-0 L51,-0 L54,-0 L57,-0 L60,-0 L63,-0 L66,-0 L69,-0 L72,-0 L75,-0 L78,-0 L81,-0 L84,-0 L87,-0 L90,-0 L93,-0 L96,-0 L99,-0 L102,-0 L105,-0 L108,-0 L111,-0 L114,-0 L117,-0 L120,-0 L123,-0 L126,-0 L129,-0 L132,-0 L135,-0 L138,-0 L141,-0 L144,-0 L147,-0 L150,-0 L153,-0 L156,-0 L159,-0 L162,-0 L165,-0 L168,-0 L171,-0 L174,-0 L177,-0 L180,-0 L183,-0 L186,-0 L189,-0 L192,-0 L195,-0 L198,-0 L201,-0 L204,-0 L207,-0 L210,-0 L213,-0 L216,-0 L219,-0 L222,-0 L225,-0 L228,-0 L231,-0 L234,-0 L237,-0 L240,-0 L243,-34 L246,-68 L249,-102 L252,-136 L255,-170 L258,-204 L261,-238 L264,-272 L267,-306 L270,-340 L273,-374 L276,-408 L279,-442 L282,-476 L285,-510 L288,-544 L291,-578 L294,-612 L297,-646 L300,-680 L303,-714 L306,-748 L309,-782 L312,-816 L315,-850 L318,-884 L321,-918 L324,-952 L327,-986 L330,-1020 L333,-1054 L336,-1088 L339,-1122 L342,-1156 L345,-1190 L348,-1224 L351,-1258 L354,-1292 L357,-1326 L360,-1360 L363,-1394 L366,-1428 L369,-1462 L372,-1496 L375,-1530 L378,-1564 L381,-1598 L384,-1632 L387,-1666 L390,-1700 L393,-1734 L396,-1768 L399,-1802 L402,-1836 L405,-1870 L408,-1904 L411,-1938 L414,-1972 L417,-2006 L420,-2040 L423,-2074 L426,-2108 L429,-2142 L432,-2176 L435,-2210 L438,-2244 L441,-2278 L444,-2312 L447,-2346 L450,-2380 L453,-2414 L456,-2448 L459,-2482 L462,-2516 L465,-2550 L468,-2584 L471,-2618 L474,-2652 L477,-2686" fill="none" stroke="#55DD33" stroke-linejoin="round" stroke-width="2"/>
</g>
</g>
<g>
<g>
<path d="M0,-0 L0,-0 L3,-0 L6,-0 L9,-0 L12,-0 L15,-0 L18,-0 L21,-0 L24,-0 L27,-0 L30,-0 L33,-0 L36,-0 L39,-0 L42,-0 L45,-0 L48,-0 L51,-0 L54,-0 L57,-0 L60,-0 L63,-0 L66,-0 L69,-0 L72,-0 L75,-0 L78,-0 L81,-0 L84,-0 L87,-0 L90,-0 L93,-0 L96,-0 L99,-0 L102,-0 L105,-0 L108,-0 L111,-0 L114,-0 L117,-0 L120,-0 L123,-0 L126,-0 L129,-0 L132,-0 L135,-0 L138,-0 L141,-0 L144,-0 L147,-0 L150,-0 L153,-0 L156,-0 L159,-0 L162,-0 L165,-0 L168,-0 L171,-0 L174,-0 L177,-0 L180,-0 L183,-0 L186,-0 L189,-0 L192,-0 L195,-0 L198,-0 L201,-0 L204,-0 L207,-0 L210,-0 L213,-0 L216,-0 L219,-0 L222,-0 L225,-0 L228,-0 L231,-0 L234,-0 L237,-0 L240,-340 L243,-340 L246,-340 L249,-340 L252,-340 L255,-340 L258,-340 L261,-340 L264,-340 L267,-340 L270,-340 L273,-340 L276,-340 L279,-340 L282,-340 L285,-340 L288,-340 L291,-340 L294,-340 L297,-340 L300,-340 L303,-340 L306,-340 L309,-340 L312,-340 L315,-340 L318,-340 L321,-340 L324,-340 L327,-340 L330,-340 L333,-340 L336,-340 L339,-340 L342,-340 L345,-340 L348,-340 L351,-340 L354,-340 L357,-340 L360,-340 L363,-340 L366,-340 L369,-340 L372,-340 L375,-340 L378,-340 L381,-340 L384,-340 L387,-340 L390,-340 L393,-340 L396,-340 L399,-340 L402,-340 L405,-340 L408,-340 L411,-340 L414,-340 L417,-340 L420,-340 L423,-340 L426,-340 L429,-340 L432,-340 L435,-340 L438,-340 L441,-340 L444,-340 L447,-340 L450,-340 L453,-340 L456,-340 L459,-340 L462,-340 L465,-340 L468,-340 L471,-340 L474,-340 L477,-340" fill="none" stroke="#0000AA" stroke-linejoin="round" stroke-width="2"/>
</g>
</g>
<g>
<g>
<path d="M0,-0.0000040240457 L0,-0.0000040240457 L3,-0.0000044472586 L6,-0.0000049149808 L9,-0.000005431894 L12,-0.000006003171 L15,-0.00000663453 L18,-0.0000073322894 L21,-0.000008103433 L24,-0.000008955679 L27,-0.000009897556 L30,-0.000010938491 L33,-0.000012088902 L36,-0.000013360303 L39,-0.000014765418 L42,-0.00001631831 L45,-0.000018034521 L48,-0.000019931229 L51,-0.000022027416 L54,-0.000024344059 L57,-0.000026904347 L60,-0.000029733901 L63,-0.00003286104 L66,-0.00003631707 L69,-0.00004013657 L72,-0.000044357766 L75,-0.000049022914 L78,-0.000054178698 L81,-0.000059876722 L84,-0.00006617401 L87,-0.0000731336 L90,-0.00008082512 L93,-0.00008932557 L96,-0.000098720026 L99,-0.000109102504 L102,-0.000120576915 L105,-0.0001332581 L108,-0.00014727298 L111,-0.0001627618 L114,-0.00017987961 L117,-0.00019879772 L120,-0.00021970546 L123,-0.00024281208 L126,-0.00026834884 L129,-0.00029657135 L132,-0.00032776204 L135,-0.00036223306 L138,-0.00040032945 L141,-0.00044243247 L144,-0.0004889635 L147,-0.0005403882 L150,-0.00059722137 L153,-0.0006600317 L156,-0.0007294478 L159,-0.0008061645 L162,-0.00089094957 L165,-0.0009846515 L168,-0.0010882083 L171,-0.0012026561 L174,-0.0013291406 L177,-0.0014689275 L180,-0.001623416 L183,-0.0017941521 L186,-0.0019828447 L189,-0.0021913822 L192,-0.002421852 L195,-0.0026765605 L198,-0.0029580567 L201,-0.0032691583 L204,-0.0036129786 L207,-0.003992959 L210,-0.004412902 L213,-0.0048770113 L216,-0.0053899307 L219,-0.0059567946 L222,-0.006583276 L225,-0.0072756456 L228,-0.008040832 L231,-0.008886494 L234,-0.009821095 L237,-0.010853988 L240,-0.011995512 L243,-0.013257091 L246,-0.014651351 L249,-0.016192246 L252,-0.017895201 L255,-0.019777255 L258,-0.021857247 L261,-0.024155995 L264,-0.026696501 L267,-0.029504199 L270,-0.032607183 L273,-0.03603651 L276,-0.0398265 L279,-0.04401509 L282,-0.0486442 L285,-0.053760152 L288,-0.05941416 L291,-0.0656628 L294,-0.07256862 L297,-0.080200724 L300,-0.08863551 L303,-0.09795739 L306,-0.108259656 L309,-0.119645424 L312,-0.13222864 L315,-0.14613524 L318,-0.16150443 L321,-0.17849 L324,-0.19726194 L327,-0.21800818 L330,-0.2409363 L333,-0.2662758 L336,-0.29428026 L339,-0.32522997 L342,-0.35943472 L345,-0.3972368 L348,-0.43901455 L351,-0.4851861 L354,-0.5362136 L357,-0.5926077 L360,-0.65493274 L363,-0.72381264 L366,-0.79993665 L369,-0.88406676 L372,-0.9770448 L375,-1.0798016 L378,-1.1933652 L381,-1.3188726 L384,-1.4575796 L387,-1.6108747 L390,-1.7802918 L393,-1.9675267 L396,-2.1744533 L399,-2.4031425 L402,-2.6558833 L405,-2.935205 L408,-3.2439032 L411,-3.5850673 L414,-3.9621122 L417,-4.3788114 L420,-4.839335 L423,-5.348292 L426,-5.9107766 L429,-6.5324187 L432,-7.219439 L435,-7.978714 L438,-8.8178425 L441,-9.745223 L444,-10.770138 L447,-11.9028425 L450,-13.1546755 L453,-14.538165 L456,-16.067158 L459,-17.756954 L462,-19.62447 L465,-21.688395 L468,-23.969381 L471,-26.490265 L474,-29.27627 L477,-32.35528" fill="none" stroke="#00AA00" stroke-linejoin="round" stroke-width="2"/>
</g>
</g>
<g>
<g>
<line stroke="black" stroke-width="1" x1="0" x2="0" y1="0" y2="10"/>
<line stroke="black" stroke-width="1" x1="120" x2="120" y1="0" y2="10"/>
<line stroke="black" stroke-width="1" x1="240" x2="240" y1="0" y2="10"/>
<line stroke="black" stroke-width="1" x1="360" x2="360" y1="0" y2="10"/>
<line stroke="black" stroke-width="1" x1="480" x2="480" y1="0" y2="10"/>
</g>
<line stroke="black" stroke-width="1" x1="0" x2="480" y1="0" y2="0"/>
<g>
<text font-size="12" text-anchor="middle" x="0" y="20">
-8
</text>
<text font-size="12" text-anchor="middle" x="120" y="20">
-4
</text>
<text font-size="12" text-anchor="middle" x="240" y="20">
0
</text>
<text font-size="12" text-anchor="middle" x="360" y="20">
4
</text>
<text font-size="12" text-anchor="middle" x="480" y="20">
8
</text>
</g>
<text font-size="12" text-anchor="middle" x="240" y="30">
x
</text>
</g>
<g>
<g>
<line stroke="black" stroke-width="1" x1="0" x2="-10" y1="-0" y2="-0"/>
<line stroke="black" stroke-width="1" x1="0" x2="-10" y1="-68" y2="-68"/>
<line stroke="black" stroke-width="1" x1="0" x2="-10" y1="-136" y2="-136"/>
<line stroke="black" stroke-width="1" x1="0" x2="-10" y1="-204" y2="-204"/>
<line stroke="black" stroke-width="1" x1="0" x2="-10" y1="-272" y2="-272"/>
<line stroke="black" stroke-width="1" x1="0" x2="-10" y1="-340" y2="-340"/>
</g>
<line stroke="black" stroke-width="1" x1="0" x2="0" y1="0" y2="-340"/>
<g>
<text dominant-baseline="middle" font-size="12" text-anchor="end" x="-15" y="-0">
0
</text>
<text dominant-baseline="middle" font-size="12" text-anchor="end" x="-15" y="-68">
0.2
</text>
<text dominant-baseline="middle" font-size="12" text-anchor="end" x="-15" y="-136">
0.4
</text>
<text dominant-baseline="middle" font-size="12" text-anchor="end" x="-15" y="-204">
0.6
</text>
<text dominant-baseline="middle" font-size="12" text-anchor="end" x="-15" y="-272">
0.8
</text>
<text dominant-baseline="middle" font-size="12" text-anchor="end" x="-15" y="-340">
1
</text>
</g>
<text font-size="12" text-anchor="middle" transform="rotate(-90 -36 -170)" x="-36" y="-182">
y
</text>
</g>
</g>
</svg>